<svg width="34" height="34" viewBox="0 0 34 34" fill="none" xmlns="http://www.w3.org/2000/svg">
<path d="M32.7327 23.6242C30.7734 22.8309 28.7184 22.1858 26.614 21.6923C26.3044 17.9273 24.7213 14.5385 22.2714 12.4987L27.18 7.67935C27.2995 7.56208 27.3591 7.44487 27.3591 7.26903C27.3591 7.09318 27.2994 6.97591 27.18 6.8587L25.5083 5.21734C25.2694 4.98286 24.9112 4.98286 24.6723 5.21734L19.4799 10.3338C19.4378 10.177 19.4182 10.0127 19.4182 9.84838V8.85182C20.8511 8.03111 21.8064 6.50702 21.8064 4.80702C21.8064 4.78736 21.8051 4.76797 21.8048 4.74838C21.8051 4.72879 21.8064 4.7094 21.8064 4.68974C21.8065 2.11032 19.6571 0 17.0299 0C14.4028 0 12.2534 2.11032 12.2534 4.68968C12.2534 4.70933 12.2547 4.72872 12.255 4.74831C12.2547 4.7679 12.2534 4.78729 12.2534 4.80695C12.2534 6.44831 13.2087 8.03111 14.6417 8.85175V9.84831C14.6417 10.4931 14.2237 11.138 13.5669 11.4311C10.2089 13.0796 7.86169 17.0431 7.5047 21.6113C5.30836 22.1288 3.21428 22.8333 1.26745 23.6829C1.08835 23.7415 0.90918 23.9173 0.90918 24.1518C0.90918 24.3863 0.968902 24.5621 1.148 24.6794L3.53623 26.2621C3.71533 26.3794 3.8945 26.3794 4.0736 26.3208C5.246 25.9371 6.37998 25.601 7.48522 25.3121C7.56443 28.6109 8.21109 31.5691 9.3277 33.707C9.44714 33.8829 9.62624 34.0001 9.86506 34.0001H12.8504C13.0295 34.0001 13.328 33.8829 13.3877 33.707C13.4475 33.5312 13.5072 33.2967 13.3877 33.1208C12.6713 31.7725 12.313 29.838 12.2534 27.4345C15.3581 26.8483 18.7614 26.8483 21.8063 27.4345C21.7466 29.838 21.3884 31.7725 20.6719 33.1208C20.5525 33.2966 20.5525 33.5311 20.6719 33.707C20.7914 33.8829 21.0302 34.0001 21.2093 34.0001H24.1946C24.4335 34.0001 24.6126 33.8829 24.6723 33.707C25.7912 31.5647 26.4384 28.5987 26.5154 25.2915C27.6399 25.5851 28.7933 25.928 29.9861 26.3208C30.0458 26.3795 30.1055 26.3795 30.1652 26.3795C30.2846 26.3795 30.404 26.3208 30.4637 26.2036L32.852 24.6209C33.0311 24.5036 33.0908 24.3278 33.0908 24.0933C33.0909 23.9173 32.9118 23.6827 32.7327 23.6242ZM25.3292 21.3966C22.8807 20.8957 20.3888 20.6096 17.9277 20.5367C16.6677 20.4933 15.4122 20.5038 14.1704 20.5697L21.4483 13.4242C23.5977 15.1827 25.0306 18.1138 25.3292 21.3966ZM15.4874 7.86177C15.4842 7.85958 15.4809 7.85725 15.4776 7.85513C15.4116 7.82425 15.3472 7.79125 15.2839 7.75685C14.2918 7.20873 13.5881 6.21091 13.4664 5.0496C13.4661 5.04707 13.466 5.04455 13.4657 5.04203C13.4606 4.99196 13.4569 4.94155 13.454 4.89095C13.4532 4.87787 13.4525 4.86486 13.4519 4.85177C13.4494 4.79798 13.4477 4.744 13.4477 4.68961C13.4477 2.75513 15.0597 1.17234 17.0301 1.17234C19.0005 1.17234 20.6125 2.75513 20.5528 4.68961C20.5528 6.03786 19.7766 7.26889 18.5227 7.85513C18.4672 7.88242 18.4188 7.91317 18.3761 7.94677C17.9599 8.11385 17.5056 8.20682 17.0301 8.20682C16.4785 8.20688 15.9552 8.08277 15.4874 7.86177ZM14.1044 12.369C15.1791 11.8414 15.8358 10.8448 15.8358 9.73104V9.22987C16.2178 9.32736 16.618 9.37928 17.0299 9.37928C17.4206 9.37928 17.8003 9.33161 18.1643 9.24368V9.73104C18.1643 10.2 18.3434 10.7276 18.5823 11.1379L8.79053 20.7518C9.3279 16.9414 11.3579 13.7172 14.1044 12.369ZM23.8365 32.8276H22.105C22.7021 31.3034 23.0006 29.3103 23.0006 26.9655C23.0006 26.6724 22.8215 26.4379 22.5229 26.3793C19.06 25.6172 15.0596 25.6172 11.537 26.3793C11.2384 26.4379 11.0593 26.6724 11.0593 26.9655C11.0593 29.3103 11.3579 31.3034 11.9549 32.8276H10.2234C9.26811 30.8345 8.73074 28.1379 8.67102 25.0897C8.90984 25.031 9.08894 24.9724 9.32776 24.9138C14.5222 23.8001 19.1793 23.8001 24.314 24.8552C24.6723 24.9138 25.0305 25.031 25.3887 25.0897C25.3292 28.1379 24.7918 30.8345 23.8365 32.8276ZM30.1057 25.1482C25.8728 23.7891 22.1148 23.0365 18.4081 22.8894C15.324 22.7516 12.2863 23.0308 9.02935 23.7414C8.67109 23.8586 8.25316 23.9172 7.89496 24.0345C7.88529 24.0393 7.87589 24.0442 7.86642 24.0492C6.62016 24.3561 5.34042 24.7224 4.01401 25.1482L2.76017 24.3275C4.43301 23.6158 6.31411 23.0576 8.209 22.6527C8.22374 22.6609 8.23842 22.6718 8.25316 22.6862C8.31289 22.6275 8.37261 22.6275 8.43226 22.6275C8.44478 22.6152 8.45736 22.6059 8.46994 22.5983C8.51708 22.5886 8.56422 22.5785 8.61143 22.569C8.73088 22.5103 8.85025 22.4517 8.90998 22.3931L19.7765 11.7828C19.8347 11.7257 19.8784 11.6616 19.9091 11.594L25.0904 6.50688L25.9263 7.3276L12.0745 20.9276C11.8954 21.1034 11.8356 21.3379 11.955 21.5724C12.0745 21.8069 12.3133 21.9242 12.5521 21.9242C12.56 21.9234 12.5678 21.9227 12.5756 21.9219C12.5877 21.9225 12.5997 21.9242 12.6118 21.9242C15.1996 21.6805 17.8715 21.6642 20.5152 21.8997C22.0639 22.0438 23.6065 22.2721 25.1293 22.5823C25.376 22.6342 25.6218 22.6881 25.8667 22.7449H25.8904C27.7346 23.1552 29.5463 23.6842 31.2999 24.3277L30.1057 25.1482Z" fill="#030305"/>
</svg>
