<?xml version="1.0" standalone="no"?>
<!DOCTYPE svg PUBLIC "-//W3C//DTD SVG 20010904//EN"
 "http://www.w3.org/TR/2001/REC-SVG-20010904/DTD/svg10.dtd">
<svg version="1.0" xmlns="http://www.w3.org/2000/svg"
 width="35.000000pt" height="35.000000pt" viewBox="0 0 35.000000 35.000000"
 preserveAspectRatio="xMidYMid meet">

<g transform="translate(0.000000,35.000000) scale(0.100000,-0.100000)"
fill="#000000" stroke="none">
<path d="M0 325 c0 -16 4 -24 11 -20 6 4 8 13 5 21 -3 8 1 14 10 14 8 0 13 -4
10 -8 -2 -4 0 -14 5 -22 7 -11 8 -8 6 10 -3 17 -11 26 -25 28 -18 3 -22 -2
-22 -23z"/>
<path d="M120 326 c0 -14 5 -26 10 -26 6 0 10 9 10 19 0 11 -4 23 -10 26 -6 4
-10 -5 -10 -19z"/>
<path d="M226 343 c6 -4 10 -16 8 -25 -1 -10 2 -18 7 -18 14 0 4 44 -12 48 -9
2 -10 1 -3 -5z"/>
<path d="M315 339 c-11 -16 -1 -19 13 -3 7 8 8 14 3 14 -5 0 -13 -5 -16 -11z"/>
<path d="M333 315 c0 -8 4 -12 9 -9 5 3 6 10 3 15 -9 13 -12 11 -12 -6z"/>
<path d="M20 220 l0 -60 50 0 50 0 0 -45 c0 -25 5 -45 10 -45 6 0 10 20 10 45
l0 45 38 0 39 0 -1 -41 c-1 -25 4 -44 12 -46 8 -3 12 9 12 41 l0 46 40 0 40 0
0 -45 c0 -25 5 -45 10 -45 6 0 10 42 10 105 0 105 -16 148 -22 58 -3 -48 -3
-48 -38 -48 -35 0 -35 0 -38 48 -4 62 -27 58 -28 -4 -1 -43 -1 -44 -35 -44
-34 0 -34 1 -37 48 -4 61 -20 61 -24 0 -3 -48 -3 -48 -38 -48 -35 0 -35 0 -38
48 -4 68 -22 58 -22 -13z"/>
<path d="M110 39 c0 -5 5 -7 10 -4 14 9 13 -8 -2 -23 -9 -9 -9 -12 3 -12 8 0
16 11 17 25 1 16 -3 25 -13 25 -8 0 -15 -5 -15 -11z"/>
<path d="M230 24 c0 -14 4 -23 9 -20 5 3 7 15 4 26 -7 28 -13 25 -13 -6z"/>
<path d="M311 28 c-1 -21 17 -34 31 -20 6 6 6 12 -3 17 -8 5 -10 4 -5 -3 4 -7
3 -12 -3 -12 -5 0 -12 8 -14 18 -4 15 -5 15 -6 0z"/>
</g>
</svg>
