<?xml version="1.0" standalone="no"?>
<!DOCTYPE svg PUBLIC "-//W3C//DTD SVG 20010904//EN"
 "http://www.w3.org/TR/2001/REC-SVG-20010904/DTD/svg10.dtd">
<svg version="1.0" xmlns="http://www.w3.org/2000/svg"
 width="35.000000pt" height="35.000000pt" viewBox="0 0 35.000000 35.000000"
 preserveAspectRatio="xMidYMid meet">

<g transform="translate(0.000000,35.000000) scale(0.100000,-0.100000)"
fill="#000000" stroke="none">
<path d="M112 343 c-25 -5 -42 -38 -42 -84 0 -23 -7 -34 -35 -50 -19 -12 -35
-28 -35 -36 0 -15 12 -15 53 2 14 6 17 2 17 -19 0 -14 -4 -26 -8 -26 -5 0 -17
-7 -28 -16 -18 -14 -18 -15 4 -4 34 17 39 5 7 -16 -23 -15 -28 -15 -36 -3 -7
11 -9 9 -9 -8 0 -27 7 -28 34 -8 29 22 36 19 36 -17 0 -55 8 -59 106 -56 l89
3 3 42 c2 24 8 43 14 43 7 0 6 6 -2 15 -10 12 -10 15 1 15 16 -1 49 -24 49
-35 0 -4 -8 -4 -17 -1 -15 5 -15 4 1 -9 26 -20 36 -19 36 3 0 9 -18 27 -40 40
-25 14 -40 30 -40 42 0 23 6 24 40 5 33 -19 40 -18 40 3 0 9 -16 26 -38 37
-34 19 -37 24 -42 75 -4 47 -8 55 -30 61 -28 8 -93 9 -128 2z m123 -13 l26
-10 -3 -152 -3 -153 -82 -3 c-98 -3 -95 -8 -89 133 2 50 4 111 5 137 1 40 4
47 24 51 42 8 96 7 122 -3z m-185 -140 c-27 -21 -40 -25 -40 -12 0 9 38 30 55
31 6 0 -1 -8 -15 -19z m265 0 c20 -13 24 -20 14 -20 -18 0 -71 39 -54 40 6 0
24 -9 40 -20z"/>
<path d="M113 294 c-7 -3 -12 -15 -12 -27 1 -17 2 -18 6 -5 5 21 37 31 84 26
29 -3 34 -7 37 -31 l4 -29 -61 4 c-34 1 -61 0 -61 -4 0 -5 30 -8 66 -8 l65 0
-3 38 -3 37 -55 2 c-30 1 -61 -1 -67 -3z"/>
<path d="M216 181 c-22 -25 -17 -56 9 -56 13 0 20 7 21 20 1 15 0 16 -3 3 -5
-23 -22 -23 -30 -2 -4 10 1 22 12 30 10 8 16 16 13 19 -2 3 -13 -4 -22 -14z"/>
<path d="M100 156 c0 -30 4 -36 21 -36 17 0 20 5 17 32 -2 22 -9 34 -20 36
-15 3 -18 -4 -18 -32z m30 -7 c0 -10 -4 -19 -10 -19 -5 0 -10 12 -10 26 0 14
4 23 10 19 6 -3 10 -15 10 -26z"/>
<path d="M107 93 c-16 -15 -6 -51 16 -57 71 -19 135 3 123 42 -7 20 -14 22
-70 22 -34 0 -66 -3 -69 -7z m130 -18 c7 -21 1 -26 -42 -32 -52 -7 -85 3 -85
27 0 18 7 20 60 20 45 0 62 -4 67 -15z"/>
</g>
</svg>
